<svg fill="none" xmlns="http://www.w3.org/2000/svg" viewBox="0 0 28 47"><path fill-rule="evenodd" clip-rule="evenodd" d="M26.532.313c-3.745.956-7.768 3.129-11.323 6.116-1.695 1.425-1.768 1.566-2.04 3.958l-.178 1.55-.337-1.063c-.185-.584-.336-1.194-.336-1.356 0-.162-.058-.294-.13-.294-.165 0-2.143 2.192-3.428 3.799-.633.79-1.12 1.59-1.343 2.207-.407 1.126-.79 2.845-.794 3.567-.004.81-.265.58-.379-.333a12.284 12.284 0 0 0-.222-1.279l-.118-.442-.497.853c-.926 1.589-2.457 4.876-3.035 6.511-.492 1.396-.576 1.827-.588 3.023-.012 1.217.041 1.513.412 2.31.234.504.399.943.366.976-.033.033-.349-.056-.702-.198-.352-.142-.666-.232-.696-.2-.03.032.01.476.087.988.144.943 1.21 3.394 1.781 4.094l.305.373.98-2.079c2.454-5.2 5.38-10.61 7.875-14.556 1.252-1.981 3.548-5.273 4.337-6.22.592-.709.372-.303-.599 1.102-2.72 3.942-8.007 13.716-11.194 20.697C3.027 38.159 0 45.402 0 45.747c0 .048.23-.16.513-.46.282-.302.69-.616.908-.7.321-.123.473-.391.813-1.44.65-2.006 1.872-5.054 2.504-6.25l.574-1.085 1.309-.11c1.652-.139 3.724-.739 5.31-1.538 1.43-.72 3.043-1.89 2.696-1.955-.127-.024-.958-.098-1.847-.163l-1.617-.12 1.232-.285a20.605 20.605 0 0 0 2.397-.745c1.104-.435 1.201-.513 1.822-1.471a54.213 54.213 0 0 0 1.493-2.514c.885-1.589 2.697-5.473 2.599-5.572-.032-.032-.287.024-.566.125-.781.28-2.883.628-3.742.619l-.77-.009.78-.357c.87-.398 4.613-2.63 5.032-3.001.476-.42 1.685-4.563 2.43-8.326.476-2.401 1.034-3.911 2.714-7.34C27.392 1.404 28.028.033 28 .005c-.03-.029-.69.11-1.467.309ZM8.622 44.425c-2.556.327-6.193.938-6.106 1.026.033.033 1.413-.116 3.068-.33 3.815-.495 8.232-.809 8.439-.6.1.1-.683.29-2.28.553-2.535.417-3.196.618-3.349 1.019-.304.799 1.395 1.062 5.31.821 2.943-.18 9.552-.745 10.008-.855.604-.147-1.731-.061-5.928.217-6.158.407-8.742.384-8.706-.077.016-.21.525-.339 2.778-.7 2.581-.412 3.08-.56 3.08-.917 0-.158-.11-.33-.244-.382-.475-.183-3.867-.057-6.07.225Zm-6.813 1.18a.59.59 0 0 0 .385 0c.106-.044.02-.079-.192-.079s-.299.035-.193.078Z" fill="#420F60"/></svg>