<svg fill="none" xmlns="http://www.w3.org/2000/svg" viewBox="0 0 147 238"><g filter="url(#Quill-Vector-Big__a)"><path fill-rule="evenodd" clip-rule="evenodd" d="M130.816 2.517c-18.325 4.637-38.007 15.178-55.4 29.672-8.293 6.91-8.65 7.596-9.986 19.199l-.866 7.52-1.648-5.155c-.906-2.836-1.647-5.797-1.647-6.58 0-.784-.284-1.426-.632-1.426-.808 0-10.49 10.633-16.778 18.426-3.097 3.84-5.474 7.715-6.567 10.71-1.994 5.462-3.866 13.8-3.885 17.304-.02 3.928-1.3 2.813-1.854-1.615-.28-2.233-.769-5.025-1.088-6.205l-.579-2.145-2.43 4.137c-4.529 7.709-12.024 23.653-14.848 31.587-2.411 6.77-2.822 8.862-2.878 14.665-.058 5.902.2 7.337 2.016 11.207 1.146 2.442 1.95 4.571 1.79 4.732-.162.161-1.707-.27-3.433-.96-1.726-.69-3.26-1.127-3.407-.972-.148.155.044 2.313.425 4.795.702 4.573 5.92 16.465 8.715 19.858l1.49 1.81 4.797-10.083c12.006-25.229 26.323-51.468 38.53-70.615 6.127-9.61 17.36-25.578 21.221-30.168 2.896-3.443 1.818-1.477-2.93 5.342-13.313 19.124-39.18 66.538-54.773 100.401C15.811 186.112 1 221.247 1 222.923c0 .231 1.13-.776 2.51-2.237s3.378-2.986 4.441-3.389c1.573-.597 2.315-1.901 3.98-6.987 3.184-9.731 9.16-24.519 12.253-30.319l2.807-5.264 6.403-.533c8.082-.673 18.225-3.585 25.987-7.462 6.988-3.488 14.882-9.167 13.188-9.485-.621-.117-4.69-.473-9.04-.791l-7.91-.577 6.026-1.387c3.315-.761 8.595-2.387 11.732-3.613 5.402-2.111 5.875-2.49 8.913-7.137 1.765-2.698 5.052-8.186 7.303-12.194 4.33-7.708 13.196-26.553 12.717-27.031-.156-.155-1.402.117-2.77.604-3.82 1.364-14.105 3.051-18.307 3.003l-3.767-.042 3.813-1.732c4.256-1.932 22.574-12.761 24.626-14.557 2.327-2.037 8.241-22.134 11.887-40.39 2.328-11.65 5.059-18.974 13.281-35.603 3.951-7.992 7.066-14.644 6.922-14.782-.143-.138-3.373.536-7.179 1.499ZM43.188 216.506c-12.51 1.589-30.303 4.555-29.877 4.981.159.158 6.913-.564 15.01-1.604 18.667-2.398 40.278-3.92 41.291-2.909.488.487-3.343 1.408-11.151 2.682-12.406 2.025-15.643 3.001-16.39 4.943-1.489 3.876 6.823 5.151 25.978 3.986 14.402-.876 46.739-3.619 48.968-4.152 2.959-.71-8.469-.295-29.004 1.052-30.13 1.976-42.77 1.867-42.595-.37.08-1.023 2.57-1.645 13.59-3.393 12.632-2.003 15.068-2.722 15.068-4.453 0-.766-.537-1.599-1.192-1.85-2.32-.889-18.92-.281-29.696 1.087Zm-33.336 5.723c.518.209 1.366.209 1.883 0 .519-.208.095-.379-.941-.379s-1.46.171-.942.379Z" fill="#420F60"/></g><defs><filter id="Quill-Vector-Big__a" x="0" y="0" width="147" height="238" filterUnits="userSpaceOnUse" color-interpolation-filters="sRGB"><feFlood flood-opacity="0" result="BackgroundImageFix"/><feColorMatrix in="SourceAlpha" values="0 0 0 0 0 0 0 0 0 0 0 0 0 0 0 0 0 0 127 0" result="hardAlpha"/><feOffset dx="4" dy="4"/><feGaussianBlur stdDeviation="2.5"/><feComposite in2="hardAlpha" operator="out"/><feColorMatrix values="0 0 0 0 0.258824 0 0 0 0 0.0588235 0 0 0 0 0.376471 0 0 0 0.25 0"/><feBlend in2="BackgroundImageFix" result="effect1_dropShadow_3_128"/><feBlend in="SourceGraphic" in2="effect1_dropShadow_3_128" result="shape"/></filter></defs></svg>